<?xml version="1.0" standalone="no"?>
<!DOCTYPE svg PUBLIC "-//W3C//DTD SVG 20010904//EN"
 "http://www.w3.org/TR/2001/REC-SVG-20010904/DTD/svg10.dtd">
<svg version="1.0" xmlns="http://www.w3.org/2000/svg"
 width="908.000000pt" height="912.000000pt" viewBox="131 132 650.000000 650.000000"
 preserveAspectRatio="xMidYMid meet">
<defs>
  <linearGradient id="gradient1" x1="0%" y1="0%" x2="100%" y2="100%">
    <stop offset="0%" style="stop-color:rgba(173, 38, 38, 1);stop-opacity:1" />
    <stop offset="100%" style="stop-color:rgba(238, 215, 41, 1);stop-opacity:1" />
  </linearGradient>
</defs>
<g transform="translate(0.000000,912.000000) scale(0.100000,-0.100000)"
fill="url(#gradient1)" stroke="none">
<path d="M4890 7689 c-43 -17 -90 -59 -110 -98 -10 -21 -37 -94 -59 -162 -22
-68 -46 -137 -51 -154 -21 -56 -367 -1099 -465 -1400 -101 -309 -169 -514
-230 -693 -51 -150 -45 -234 23 -305 86 -91 238 -94 318 -5 24 26 64 97 64
114 0 6 87 274 193 595 107 321 240 726 297 899 56 173 150 457 208 630 87
262 105 326 106 380 1 99 -44 168 -133 198 -41 14 -126 15 -161 1z"/>
<path d="M3295 7338 c-34 -9 -107 -77 -503 -472 -255 -253 -482 -485 -504
-514 -39 -50 -42 -58 -46 -131 -3 -48 0 -93 8 -116 14 -44 19 -48 869 -927
137 -141 172 -162 269 -156 81 5 126 31 168 97 37 58 44 156 17 213 -11 22
-182 205 -418 444 -220 224 -401 409 -402 413 -1 3 172 182 384 396 316 320
390 399 409 443 28 62 31 138 8 185 -20 40 -71 94 -104 112 -37 19 -109 25
-155 13z"/>
<path d="M5728 7340 c-52 -15 -97 -51 -124 -98 -38 -64 -40 -159 -5 -217 13
-22 139 -157 280 -300 141 -143 314 -319 385 -392 l130 -132 -400 -405 c-428
-435 -454 -467 -454 -557 0 -64 43 -145 98 -184 35 -24 55 -30 112 -33 101 -6
136 15 278 161 64 66 284 291 487 499 204 208 379 395 389 415 25 46 32 125
16 182 -14 54 -75 117 -640 670 -353 345 -390 379 -432 389 -53 14 -81 14
-120 2z"/>
<path d="M4501 4586 c-24 -8 -57 -27 -73 -43 -59 -56 -61 -68 -62 -308 l-1
-220 -755 -6 c-467 -3 -768 -9 -790 -16 -210 -61 -372 -170 -485 -328 -54 -76
-80 -127 -112 -224 -24 -70 -27 -94 -32 -306 l-6 -229 -55 -21 c-195 -72 -354
-235 -425 -435 -101 -281 -33 -601 170 -806 146 -147 295 -213 505 -221 109
-5 136 -2 205 17 310 86 514 313 561 622 17 111 14 185 -13 303 -53 237 -256
456 -497 535 l-38 12 4 182 c4 179 5 182 36 246 37 77 105 147 182 187 l55 28
748 3 747 2 0 -323 c0 -335 -1 -347 -42 -347 -26 0 -126 -48 -188 -90 -357
-244 -426 -760 -149 -1105 219 -272 615 -355 924 -194 175 91 299 236 371 436
26 73 28 88 28 238 0 148 -2 166 -27 239 -34 97 -65 151 -134 238 -82 101
-212 197 -308 228 -22 7 -44 16 -49 21 -6 5 -10 147 -10 334 l-1 326 740 -3
740 -3 60 -32 c93 -49 155 -121 198 -230 20 -52 22 -76 22 -222 l0 -165 -56
-16 c-230 -69 -419 -276 -478 -524 -53 -224 0 -491 130 -656 109 -138 244
-225 420 -271 114 -29 299 -23 406 13 235 81 416 265 490 498 24 76 27 101 27
230 1 126 -2 155 -23 220 -46 146 -107 238 -232 354 -65 60 -135 102 -240 144
l-27 10 -5 224 c-4 201 -7 230 -30 298 -40 124 -99 224 -192 328 -71 80 -200
159 -355 218 l-75 29 -755 5 -755 5 -5 222 -5 221 -30 44 c-56 79 -161 114
-254 84z m-1984 -2102 c64 -18 146 -90 188 -166 27 -48 30 -61 30 -148 0 -114
-15 -150 -90 -225 -77 -77 -110 -90 -235 -90 -94 1 -110 3 -156 27 -145 76
-212 257 -153 412 40 105 121 173 234 199 64 15 100 13 182 -9z m4303 8 c124
-35 199 -106 241 -231 26 -78 22 -133 -19 -222 -33 -73 -82 -125 -150 -160
-40 -21 -61 -24 -147 -24 -86 0 -107 3 -150 25 -61 30 -126 95 -157 157 -33
68 -33 218 0 280 50 95 123 152 227 177 79 19 80 19 155 -2z m-2096 -27 c70
-35 119 -88 157 -169 72 -151 6 -333 -147 -411 -54 -27 -68 -30 -159 -30 -94
0 -103 2 -155 32 -112 65 -161 144 -168 274 -4 78 -2 92 23 148 35 77 115 154
183 176 76 24 197 15 266 -20z"/>
</g>


</svg>
